<svg xmlns="http://www.w3.org/2000/svg" viewBox="0 0 561.99 109.29"><defs><style>.cls-1{fill:none;}.cls-2{fill:#00a19c;}.cls-3{fill:#27a4d6;}.cls-11,.cls-4{fill:#fff;}.cls-5{fill:#a6a0f2;}.cls-6{fill:#f4c6d3;}.cls-7{fill:#f9e7dc;}.cls-8{fill:#ffc200;}.cls-9{fill:#303030;}.cls-10{fill:#42c1b7;}.cls-11,.cls-12,.cls-13,.cls-14,.cls-15,.cls-16,.cls-17,.cls-18,.cls-19,.cls-20,.cls-21{fill-rule:evenodd;}.cls-12{fill:#dac8de;}.cls-13{fill:#c4a7ca;}.cls-14{fill:url(#linear-gradient);}.cls-15{fill:url(#linear-gradient-2);}.cls-16{fill:url(#linear-gradient-3);}.cls-17{fill:url(#linear-gradient-4);}.cls-18{fill:url(#linear-gradient-5);}.cls-19{fill:url(#linear-gradient-6);}.cls-20{fill:url(#linear-gradient-7);}.cls-21{fill:url(#linear-gradient-8);}</style><linearGradient id="linear-gradient" x1="291.36" y1="129.27" x2="310.29" y2="129.27" gradientTransform="matrix(1 0 0 -1 0 137.98)" gradientUnits="userSpaceOnUse"><stop offset="0" stop-color="#dfc8d7"/><stop offset="1" stop-color="#f29ba0"/></linearGradient><linearGradient id="linear-gradient-2" x1="291.36" y1="129.27" x2="310.29" y2="129.27" gradientTransform="matrix(1 0 0 -1 0 137.98)" gradientUnits="userSpaceOnUse"><stop offset="0" stop-color="#cda5bd"/><stop offset="1" stop-color="#ea5f67"/></linearGradient><linearGradient id="linear-gradient-3" x1="193.6" y1="109.71" x2="216.92" y2="109.71" gradientTransform="matrix(1 0 0 -1 0 137.98)" gradientUnits="userSpaceOnUse"><stop offset="0" stop-color="#f99"/><stop offset="1" stop-color="#fcdf9b"/></linearGradient><linearGradient id="linear-gradient-4" x1="193.56" y1="109.57" x2="216.88" y2="109.57" gradientTransform="matrix(1 0 0 -1 0 137.98)" gradientUnits="userSpaceOnUse"><stop offset="0" stop-color="#f8be5f"/><stop offset="1" stop-color="#f5b95d"/></linearGradient><linearGradient id="linear-gradient-5" x1="399.98" y1="108.27" x2="422.47" y2="108.27" gradientTransform="matrix(1 0 0 -1 0 137.98)" gradientUnits="userSpaceOnUse"><stop offset="0" stop-color="#f9f59f"/><stop offset="1" stop-color="#c7e5ca"/></linearGradient><linearGradient id="linear-gradient-6" x1="399.98" y1="108.27" x2="421.9" y2="108.27" gradientTransform="matrix(1 0 0 -1 0 137.98)" gradientUnits="userSpaceOnUse"><stop offset="0" stop-color="#f7ef62"/><stop offset="1" stop-color="#a9d7a9"/></linearGradient><linearGradient id="linear-gradient-7" x1="498" y1="97.49" x2="521.7" y2="97.49" gradientTransform="matrix(1 0 0 -1 0 137.98)" gradientUnits="userSpaceOnUse"><stop offset="0" stop-color="#d5aad7"/><stop offset="1" stop-color="#d6afaf"/></linearGradient><linearGradient id="linear-gradient-8" x1="498" y1="96.72" x2="521.7" y2="96.72" gradientTransform="matrix(1 0 0 -1 0 137.98)" gradientUnits="userSpaceOnUse"><stop offset="0" stop-color="#bc75c8"/><stop offset="1" stop-color="#bd7f7f"/></linearGradient></defs><title>rndw_Asset 1</title><g id="Layer_1-2-2"><path class="cls-1" d="M28.61 79.41c1.4 2.49 3.38 4.81 4.13 6-.66-1.12-2.67-3.41-4.13-6zm-15.9-9.53a12.67 12.67 0 0 1-2.1-.45 13.05 13.05 0 0 0 4.63.73 17.24 17.24 0 0 0 6.1-1.27 17.74 17.74 0 0 1-8.63.99zm19.29-12.88c1.34 2.43 4.75 5.09 6.14 7.35-1.27-2.29-4.68-4.92-6.14-7.35z"/><path class="cls-2" d="M48.29 100.61c3.35-1.83 4.79-4.41 4.27-7.66s-2.91-5.81-5.17-8.33c-2.5-2.79-4.87-5.41-4.87-8.52 0-2.66 2.1-4.12 3.94-5.4 1.6-1.11 3.1-2.18 3.22-3.86.1-1.41-.81-3-2.9-4.85-3.81-3.54-5.94-8.15-5-10.94a3.42 3.42 0 0 1 .44-.9c.53 2.57 3.16 4.6 5.94 6.74 3.39 2.59 6.84 5.28 7.24 9.11-.07 1.72-.88 2.09-1.9 2.57s-2.25 1-2.25 3.09 2 4.35 4.55 7.13c3.18 3.45 7.13 7.75 7.68 13.07a4.59 4.59 0 0 1-1.11 3.53c-2.06 2.48-6.8 4.23-14.08 5.22z"/><path class="cls-3" d="M31.76 101.53c-3.57 0-6.89-.1-9.9-.29a35.44 35.44 0 0 0 5.74-1.24 10.36 10.36 0 0 0 6.53-5.81 10.24 10.24 0 0 0-.59-8.76l-.18-.29a20.62 20.62 0 0 0-1.42-2 42.52 42.52 0 0 1-2.73-4c-1.73-3-1.9-5.2-.51-6.53.83-.8 2.65-1.34 4.41-1.87 2.49-.73 5.09-1.52 6-3.24a3.25 3.25 0 0 0-.34-3.5 21.83 21.83 0 0 0-3.09-3.7 22.06 22.06 0 0 1-3-3.63 3.13 3.13 0 0 1-.46-1.45c0-2.18.83-2.66 2.64-3.7.36-.21.72-.44 1.16-.73a15.12 15.12 0 0 1 2.31-1.07c2-.82 4.14-1.66 4.9-3.71 1.88-5.21-4.23-9.59-6.23-11.01a11.16 11.16 0 0 1-4.51-10.71 13.83 13.83 0 0 1 1.23 2.71 16.31 16.31 0 0 0 3.78 6.5c.61.57 1.34 1.17 2.1 1.8 3 2.44 6.63 5.47 6.63 9.68a2.17 2.17 0 0 1-1.45 2.29c-3 .3-4.16 1.92-4.61 3.23-1.14 3.31 1.14 8.59 5.41 12.55 1.66 1.54 2.46 2.78 2.4 3.69s-1.24 1.81-2.59 2.76c-2 1.45-4.56 3.18-4.56 6.6 0 3.63 2.66 6.62 5.23 9.48 2.18 2.4 4.36 4.87 4.81 7.6.62 3.87-2.4 6.59-9 8.06-3 .19-6.37.29-10 .29h-.14z"/><path class="cls-4" d="M15.24 70.16a13.12 13.12 0 0 1-4.6-.73c-.41-.13-.81-.28-1.21-.45l.39.22a12.77 12.77 0 0 0 5.42.96z"/><path class="cls-5" d="M16.13 100.15a34.73 34.73 0 0 1-6.27-.56 24.39 24.39 0 0 1-5.09-1.5c-3.35-1.56-4.96-3.64-4.77-6.09.48-5.75 4.54-10 7.8-13.43 2.47-2.59 4.43-4.64 4.43-6.78a4.56 4.56 0 0 0-.15-1.16 14.27 14.27 0 0 0 2.77.25h.37a18 18 0 0 0 6.36-1.32 12.08 12.08 0 0 0 5.09-3.43c2.1-2.59.85-5.37-.24-7.83s-2.11-4.75-.09-6.82a10.94 10.94 0 0 1 3.72-1.68c2.94-1 6.6-2.18 5.86-5.32-.48-2-3.12-6.8-3.76-7.88-1.45-2.46-2.39-4.08-1.52-10.89v-.32h-.15l.21-.41a12.44 12.44 0 0 0 5.3 11.28c4.86 3.47 6.71 6.53 5.68 9.3-.54 1.45-2.34 2.18-4.08 2.87a15.83 15.83 0 0 0-2.6 1.18c-.38.24-.73.44-1.07.64-1.94 1-3.45 1.9-3.45 4.92 0 2.08 2 4.2 4 6.24 1.81 1.89 3.87 4 3.17 5.29s-3 1.89-5.19 2.55c-2 .61-3.92 1.18-5 2.23-3.58 3.45.64 9.17 3.16 12.59a21.84 21.84 0 0 1 1.37 2 8.81 8.81 0 0 1 .57 7.53 8.92 8.92 0 0 1-5.66 5 36.61 36.61 0 0 1-10.76 1.55z"/><path class="cls-6" d="M14.76 69.29a14.23 14.23 0 0 1-2-.13 11 11 0 0 1-2-.45 8 8 0 0 1-1.06-.41 6.85 6.85 0 0 1-.84-.46 2.57 2.57 0 0 1-.73-2c.55-4 4.25-6.86 7.52-9.38 3.08-2.39 5.75-4.44 5.75-7.26a6.31 6.31 0 0 0 4.27-2.5c1.63-2.12 1.51-4.93 1.39-7.91-.1-2.43-.2-4.93.67-7.12l.12-.3a13.73 13.73 0 0 0 .73-1.29 12 12 0 0 0 2.05 7.26 41.92 41.92 0 0 1 3.4 7.26c.44 1.86-2.26 2.83-4.86 3.77a11.62 11.62 0 0 0-4.15 2.07c-2.72 2.78-1.38 5.81-.2 8.43 1.06 2.38 2 4.43.44 6.33-2 2.4-6.25 4.06-10.57 4.06z"/><path class="cls-7" d="M20.54 47.74h-.44l-.41-.14c-1.19-.39-2.3-.73-2.3-2.6 0-4.56 3.79-7.55 7.13-10.17l1.18-.94a29.85 29.85 0 0 0-.14 4.91c.07 2.73.15 5.3-1.17 7a4.69 4.69 0 0 1-3.85 1.94z"/><path class="cls-8" d="M37.15 18.27l-2.83-1.27 4.41-2.54-5.32 1 1.42-2.44-2.57 1.78v-5.17l-1.81 5.08-1.45-2.45.27 3.11-4.4-2.54 3.52 4.17h-2.83l2.83 1.32-4.39 2.5 5.31-1-1.42 2.48 2.56-1.79v5.09l1.81-5.09 1.42 2.49-.27-3.11 4.41 2.54-3.5-4.12z"/><path class="cls-9" d="M142.14 100h5.69l1.17-3h17.49l1.15 3h5.69l-15.57-38.28zm8.78-7.89l6.84-17.55 6.84 17.54zm-29.88 8l-6.73-13.26a.54.54 0 0 1 .26-.16.76.76 0 0 0 .26-.16 13.2 13.2 0 0 0 3.52-3.18 13.8 13.8 0 0 0 2.17-4.23 4.9 4.9 0 0 1 .26-1v-.22a2.08 2.08 0 0 0 .13-.6 4.51 4.51 0 0 1 .08-.6v-.1a3.14 3.14 0 0 0 .01-.6v-1.49a3.35 3.35 0 0 0-.05-.63c0-.21-.06-.42-.08-.63a1.82 1.82 0 0 0-.13-.57v-.26a3.68 3.68 0 0 1-.15-.47 2.42 2.42 0 0 0-.11-.47 13 13 0 0 0-5.63-7.48 15.69 15.69 0 0 0-8.2-2.24h-12.43v38.38h5.59v-11.37h8.19s.83-.09 1.25-.16l5.9 11.54zm-10.57-17a6.92 6.92 0 0 1-3.16.73h-7.47v-17.16h7.47a6.92 6.92 0 0 1 3.16.73 8.37 8.37 0 0 1 2.48 1.9 9.22 9.22 0 0 1 1.67 2.75 8.42 8.42 0 0 1 0 6.39 9.93 9.93 0 0 1-1.62 2.75 8.26 8.26 0 0 1-2.46 1.93zm161.53-15.7a18.43 18.43 0 0 0-5.87-4.13 17.46 17.46 0 0 0-7.23-1.51h-13.34v38.28h13.37a17.94 17.94 0 0 0 7.36-1.52 18.39 18.39 0 0 0 5.88-4.1 19.19 19.19 0 0 0 3.89-6 19.61 19.61 0 0 0 1.41-7.43 18.84 18.84 0 0 0-1.47-7.51 19.58 19.58 0 0 0-4-6.08zm-1.35 19a14 14 0 0 1-2.74 4.59 12.81 12.81 0 0 1-9.61 4.18h-7.16v-28.45h7.16a12.54 12.54 0 0 1 5.33 1.12 13.41 13.41 0 0 1 4.25 3.06 13.72 13.72 0 0 1 2.8 4.51 15.89 15.89 0 0 1 0 11zm33.39-1h15v-5.26h-15v-13h16.66v-5.33h-22.2v38.12h22.6v-5.48h-17zm197.69 9.14a19.51 19.51 0 0 0 4.07-6.11 18.8 18.8 0 0 0 1.49-7.47 19.09 19.09 0 1 0-38.18 0 18.8 18.8 0 0 0 1.49 7.47 19 19 0 0 0 25 10.24 19.48 19.48 0 0 0 6.17-4.17zm-13.56.32a12.17 12.17 0 0 1-5.11-1.1 13.38 13.38 0 0 1-4.21-3 14.11 14.11 0 0 1-3.85-9.8 14.37 14.37 0 0 1 3.93-9.97 13.61 13.61 0 0 1 4.21-3 12.1 12.1 0 0 1 5.07-1 12.32 12.32 0 0 1 5.15 1 13.26 13.26 0 0 1 4.23 3 14.51 14.51 0 0 1 3.89 9.89 14.23 14.23 0 0 1-3.89 9.82 13.26 13.26 0 0 1-4.23 3 12.38 12.38 0 0 1-5.15 1.12zm-113.65-8.61l-9.74-24-9.74 24-9.76-24h-5.8l15.52 38.41 9.74-24 9.74 24 15.56-38.44h-5.8zm-155.32 4.49l-24.75-29.61v39h5.28v-24.14l19.63 24.18h5.12v-38.36h-5.28zm317.8-23.34a1.61 1.61 0 0 1 0-.31 1.27 1.27 0 0 0-.06-.28v-.13a1.55 1.55 0 0 1-.08-.23.89.89 0 0 1 0-.23 6.5 6.5 0 0 0-2.8-3.68 7.69 7.69 0 0 0-4-1.1h-6.12v18.89h2.75v-5.58h4l.62-.08 2.9 5.68h2.9l-3.31-6.53a.35.35 0 0 1 .13-.08.33.33 0 0 0 .13-.07 5.87 5.87 0 0 0 2.67-3.68 1.69 1.69 0 0 1 .13-.49v-.1a1.59 1.59 0 0 0 .06-.3v-.3a1.5 1.5 0 0 0 0-.3v-.72a1.61 1.61 0 0 0 0-.31zm-3.14 2.28a5 5 0 0 1-.86 1.31 4.06 4.06 0 0 1-1.22 1 3.46 3.46 0 0 1-1.55.36h-3.68v-8.47h3.68a3.33 3.33 0 0 1 1.55.36 4 4 0 0 1 1.22.94 4.44 4.44 0 0 1 .82 1.35 4 4 0 0 1 .31 1.57 4.08 4.08 0 0 1-.31 1.58zm25.07-8.16v11.47a5.55 5.55 0 0 1-1.18 3.84 5.49 5.49 0 0 1-7 0 5.5 5.5 0 0 1-1.26-3.84v-11.47h-3v11.76q0 3.84 1.92 5.73t5.82 1.9c2.59 0 4.54-.63 5.83-1.9s1.94-3.18 1.94-5.73v-11.76z"/><path class="cls-10" d="M455.23 89.44l-.5-1.86-6.54 1.75-4.46-2.57 8.59-2.31h.09l-.5-1.86-10.53 2.83-1.07-.62v-8.9l1.07-.62 10.44 2.8h.09l.5-1.86-8.68-2.32 4.46-2.58 6.46 1.73h.08l.5-1.85-4.68-1.2 5.62-3.24h.08l-1-1.66-5.69 3.29 1.23-4.6v-.09l-1.86-.5-1.75 6.54-4.46 2.57 2.3-8.59v-.08l-1.85-.5-2.83 10.53-1.07.62-7.69-4.44v-1.3l7.71-7.71-1.29-1.36-6.35 6.35v-5.15l4.79-4.78-1.44-1.37-3.35 3.47v-6.62h-1.92v6.62l-3.43-3.43-1.36 1.37 4.79 4.78v5.15l-6.35-6.35-1.38 1.32 7.71 7.71v1.24l-7.71 4.44-1-.62-2.8-10.45v-.08l-1.85.5 2.32 8.67-4.46-2.57-1.73-6.46v-.08l-1.86.5 1.25 4.68-5.62-3.25h-.07l-1 1.66 5.7 3.29-4.68 1.26.5 1.85 6.54-1.75 4.43 2.62-8.67 2.22.5 1.86 10.5-2.8 1.07.62v8.88l-1.07.62-10.4-2.8h-.09l-.5 1.86 8.68 2.33-4.46 2.57-6.46-1.73h-.08l-.5 1.86 4.68 1.25-5.66 3.26h-.08l1 1.67 5.69-3.29-1.26 4.62v.09l1.86.5 1.73-6.59 4.46-2.58-2.3 8.58v.09l1.85.5 2.84-10.59 1.07-.61 7.69 4.44v1.27l-7.76 7.73 1.36 1.36 6.35-6.35v5.16l-4.71 4.78 1.36 1.36 3.43-3.42v6.57h1.92v-6.57l3.43 3.42 1.36-1.36-4.85-4.78v-5.16l6.39 6.35 1.36-1.36-7.71-7.71v-1.23l7.69-4.44 1.07.61 2.8 10.45v.09l1.85-.5-2.32-8.68 4.45 2.58 1.77 6.44v.09l1.86-.5-1.25-4.68 5.62 3.24h.07l1-1.67-5.7-3.29zm-16.85-5.77l-4.16-2.4h-.07l-1 1.67 4.24 2.44-5.77 3.33v-4.94h-1.92v4.89l-5.77-3.33 4.16-2.4h.08l-1-1.67-4.17 2.41v-6.67l4.16 2.4h.07l1-1.66-4.23-2.46 5.7-3.29v4.89h1.92v-4.88l5.77 3.33-4.16 2.4h-.08l1 1.66 4.2-2.39zm-7.69-6.29a3 3 0 1 0 3 3 3 3 0 0 0-3-3zm0 4a1 1 0 1 1 1-1 1 1 0 0 1-1 1z"/><path class="cls-11" d="M104.16 23a23.13 23.13 0 0 1-11.38-2.7c-.54-.29-1.06-.6-1.57-.93l-.09-.05c.25-.56.51-1.12.8-1.66a23.26 23.26 0 0 1 19.51-12.4h.57a22.94 22.94 0 0 1 7.8 1.17l.38.13a20.3 20.3 0 0 1 4.73 2.3l.15.09a10.88 10.88 0 0 1 2.13 1.88s-2.52.39-6.2 4.48a23.34 23.34 0 0 1-16.83 7.69m-13-3.66l-.1-.06c.25-.56.51-1.12.8-1.66a23.25 23.25 0 0 1 19.57-12.37h.57a22.94 22.94 0 0 1 7.8 1.17l.38.13a20.3 20.3 0 0 1 4.73 2.3l.15.09a10.88 10.88 0 0 1 2.13 1.88c-17.32-3.59-23.6 7-36 8.53"/><path class="cls-12" d="M104.16 23a23.13 23.13 0 0 1-11.38-2.7c-.54-.29-1.06-.6-1.57-.93l-.09-.05c.25-.56.51-1.12.8-1.66a23.26 23.26 0 0 1 19.51-12.4h.57a22.94 22.94 0 0 1 7.8 1.17l.38.13a20.3 20.3 0 0 1 4.73 2.3l.15.09a10.88 10.88 0 0 1 2.13 1.88s-2.52.39-6.2 4.48a23.34 23.34 0 0 1-16.83 7.69"/><path class="cls-13" d="M91.21 19.33l-.1-.06c.25-.56.51-1.12.8-1.66a23.25 23.25 0 0 1 19.52-12.36h.57a22.94 22.94 0 0 1 7.8 1.17l.38.13a20.3 20.3 0 0 1 4.73 2.3l.15.09a10.88 10.88 0 0 1 2.13 1.88c-17.32-3.59-23.6 7-36 8.53"/><path class="cls-14" d="M291.44 1.6c0-.41-.07-.83-.08-1.24v-.07c.42-.08.83-.15 1.25-.19a15.9 15.9 0 0 1 14.51 6.28l.23.31a16.06 16.06 0 0 1 2.34 4.86l.08.26a14.31 14.31 0 0 1 .52 3.56v.12a7.77 7.77 0 0 1-.24 1.92c-9.2-12.85-16.58-3.51-18.6-15.81"/><path class="cls-15" d="M291.36.36v-.07c.42-.08.83-.15 1.25-.19a15.9 15.9 0 0 1 14.51 6.28l.23.31a16.06 16.06 0 0 1 2.34 4.86l.08.26a14.31 14.31 0 0 1 .52 3.56v.12a7.77 7.77 0 0 1-.24 1.92c-3.59-11.86-12-15.07-18.68-17"/><path class="cls-16" d="M211.15 24.89a15.7 15.7 0 0 1 5.23 6c.19.37.35.75.51 1.13v.06c-.36.21-.73.42-1.1.61a15.83 15.83 0 0 1-15.69-.87l-.32-.21a15.87 15.87 0 0 1-3.85-3.73l-.16-.22a14.08 14.08 0 0 1-1.77-3.13v-.11a7.67 7.67 0 0 1-.44-1.88s1.55.78 5.2 0a15.87 15.87 0 0 1 12.35 2.38"/><path class="cls-17" d="M216.88 32c-.36.22-.72.42-1.1.61a15.83 15.83 0 0 1-15.69-.87l-.32-.21a15.87 15.87 0 0 1-3.85-3.73l-.17-.21a14.52 14.52 0 0 1-1.7-3.15v-.11a7.69 7.69 0 0 1-.45-1.88c9 6.54 16.57-.69 23.32 9.55"/><path class="cls-18" d="M421.86 33.5v.07c-.35.2-.7.38-1.06.55a15.06 15.06 0 0 1-14.9-1.23l-.3-.21a15.22 15.22 0 0 1-3.6-3.68l-.15-.21a14.18 14.18 0 0 1-1.54-3v-.1a7.39 7.39 0 0 1-.37-1.8c7.23 6.08 26.06 1.89 21.9 9.62"/><path class="cls-19" d="M421.88 33.57c-.35.2-.7.38-1.06.55a15.06 15.06 0 0 1-14.9-1.23l-.3-.21a15.12 15.12 0 0 1-3.62-3.68l-.15-.21a14.18 14.18 0 0 1-1.54-3v-.1a7.39 7.39 0 0 1-.37-1.8c4 5.7 11.85 9.13 21.92 9.69"/><path class="cls-20" d="M521.64 37.6c1 1.09-10 10.79-19.35 6l-.23-.12a13.1 13.1 0 0 1-2.79-1.93l-.09-.08a7.46 7.46 0 0 1-1.18-1.47c12.72 3.57 18.53-8 23.64-2.44"/><path class="cls-21" d="M521.64 37.6c1 1.09-10 10.79-19.35 6l-.23-.12a13.1 13.1 0 0 1-2.79-1.93l-.09-.08a7.46 7.46 0 0 1-1.18-1.47c12.72 3.57 18.07 1.75 23.64-2.44"/></g></svg>